<?xml version="1.0" encoding="UTF-8"?>
<svg version="1.1" xmlns="http://www.w3.org/2000/svg" width="1024" height="1024">
<path d="M0 0 C3.59252186 0.0266726 7.1850525 0.05041159 10.77759933 0.07344818 C71.73061506 0.47891999 71.73061506 0.47891999 96.34061813 4.9021225 C98.19856003 5.226362 98.19856003 5.226362 100.0940361 5.55715179 C135.59804599 12.00636483 168.62850853 26.73077964 195.84061813 50.6521225 C196.78550095 51.47583344 197.73038376 52.29954437 198.70389938 53.14821625 C204.1769077 58.01393541 209.22527356 62.97020669 213.84061813 68.6521225 C214.66046188 69.63438812 215.48030563 70.61665375 216.32499313 71.628685 C261.49422882 126.6490464 263.00394475 195.71455409 262.98600185 263.52178168 C262.98579481 268.4205323 262.99134507 273.31927732 262.99605942 278.21802521 C263.00430208 287.78174768 263.00711135 297.34546399 263.0076718 306.90918973 C263.00815005 314.69857528 263.01022009 322.48795883 263.01337242 330.27734375 C263.02216188 352.45361178 263.02679453 374.62987502 263.02604195 396.8061448 C263.02598201 398.59267964 263.02598201 398.59267964 263.02592087 400.41530609 C263.02585955 402.20407016 263.02585955 402.20407016 263.02579699 404.02897087 C263.02539109 423.32686916 263.03495085 442.62474789 263.04905923 461.92264053 C263.06349446 481.82768695 263.0703255 501.73272388 263.06946546 521.63777566 C263.06913592 532.77663772 263.07177472 543.91547927 263.08264351 555.05433655 C263.09184328 564.54207288 263.09384743 574.02977941 263.08713409 583.51751831 C263.08391575 588.33851185 263.08363721 593.15944855 263.09248734 597.98043633 C263.12487541 616.83247417 262.9116964 635.62503831 261.90746689 654.4536972 C261.86566668 655.2409252 261.82386647 656.0281532 261.78079959 656.83923659 C258.84441346 710.7964489 243.40703685 759.78278156 205.84061813 799.6521225 C205.27085251 800.26313812 204.70108688 800.87415375 204.11405563 801.503685 C199.0999721 806.70787597 193.50274476 811.17685018 187.84061813 815.6521225 C186.94729782 816.3739975 186.05397751 817.0958725 185.13358688 817.8396225 C149.07183284 846.08379349 104.4926897 856.18497205 59.65542221 858.71797943 C58.49784997 858.78346964 58.49784997 858.78346964 57.31689244 858.85028288 C38.64275904 859.87836789 19.9858071 859.93944317 1.28838575 859.91357183 C-3.67902098 859.90895073 -8.64641512 859.91607773 -13.61381912 859.92153168 C-23.29081433 859.93032697 -32.96777815 859.92854832 -42.64477449 859.9227064 C-50.5249876 859.91815018 -58.40519205 859.91759389 -66.28540611 859.91975403 C-67.98140182 859.92021373 -67.98140182 859.92021373 -69.71166008 859.92068271 C-72.01011379 859.9213223 -74.30856751 859.92197073 -76.60702122 859.9226279 C-98.05370958 859.92830236 -119.50038072 859.92181906 -140.94706625 859.91102716 C-159.26239426 859.90209553 -177.5776969 859.90364616 -195.89302444 859.91286469 C-217.27256357 859.9236208 -238.65208769 859.92775204 -260.03162915 859.92164016 C-262.32093338 859.9210032 -264.61023762 859.92037446 -266.89954185 859.91975403 C-268.58816931 859.9192912 -268.58816931 859.9192912 -270.31091044 859.91881903 C-278.16121172 859.91710793 -286.01150329 859.91997254 -293.86180305 859.92471313 C-303.45802405 859.93038186 -313.05421242 859.92868201 -322.65042978 859.91815165 C-327.52604846 859.91297392 -332.40161321 859.91069896 -337.27723122 859.91744995 C-355.99324005 859.94111099 -374.65691516 859.75290043 -393.3494606 858.74922943 C-394.10352278 858.70959061 -394.85758497 858.66995179 -395.63449752 858.6291118 C-442.21294923 856.11375417 -489.20255767 843.77705234 -525.15938187 812.6521225 C-525.92895218 811.9921225 -526.69852249 811.3321225 -527.49141312 810.6521225 C-530.09409878 808.36478647 -532.63353409 806.02412969 -535.15938187 803.6521225 C-535.69079788 803.15470551 -536.2222139 802.65728851 -536.76973343 802.14479828 C-579.53009362 761.78986098 -594.47085614 704.41317389 -596.23172331 647.30599689 C-596.36707528 641.36837909 -596.41850412 635.42980689 -596.47139359 629.49098969 C-596.49188149 627.49782092 -596.51258604 625.50465436 -596.53348541 623.51148987 C-596.5889244 618.06021517 -596.63773065 612.60890078 -596.68434763 607.15754414 C-596.71444316 603.65550144 -596.74588847 600.15347269 -596.7775116 596.65144348 C-597.32421097 535.2527128 -597.3125871 473.85283797 -597.28884372 412.45218712 C-597.28432165 400.52761802 -597.28519873 388.60305864 -597.28975296 376.67848969 C-597.29516128 362.5127693 -597.29718487 348.34705458 -597.2941407 334.1813333 C-597.2938224 332.66107543 -597.29350802 331.14081756 -597.29319763 329.62055969 C-597.29296622 328.500968 -597.29296622 328.500968 -597.29273013 327.35875829 C-597.2918877 322.24642372 -597.29329578 317.13409301 -597.29567719 312.02175903 C-597.30718642 284.89223365 -597.27021356 257.76811112 -596.70186234 230.64333344 C-596.68164969 229.66365239 -596.66143704 228.68397134 -596.64061189 227.67460299 C-595.2750108 163.50503368 -582.89280601 106.88425021 -538.15938187 58.6521225 C-537.6218428 58.06044281 -537.08430374 57.46876312 -536.53047562 56.85915375 C-510.06913421 28.93879101 -471.27797834 12.55381756 -434.15938187 5.6521225 C-432.95765335 5.42468353 -432.95765335 5.42468353 -431.73164749 5.19264984 C-401.90749357 -0.28412698 -371.23349578 0.24649149 -341.03256989 0.05082703 C-337.40985195 0.02670955 -333.78716848 -0.00051824 -330.1644783 -0.02848053 C-233.88513989 -0.75999849 -137.58856756 -0.67335945 0 0 Z " fill="#C61D02" transform="translate(679.1593818664551,95.3478775024414)"/>
<path d="M0 0 C9.7588188 8.2843253 15.97921131 19.12518287 17.18603516 32.03393555 C17.3048407 34.60342144 17.3441063 37.15825725 17.33984375 39.73046875 C17.33968262 40.64425293 17.33952148 41.55803711 17.33935547 42.49951172 C17.18995765 51.48382446 16.05007964 61.04011492 10.96484375 68.66796875 C10.91996826 68.06436523 10.87509277 67.46076172 10.82885742 66.83886719 C9.12978959 44.63884263 5.06760182 26.46181906 -9.03515625 8.66796875 C-9.67904297 7.81912109 -9.67904297 7.81912109 -10.3359375 6.953125 C-12.80053214 4.0550186 -13.98658229 3.67195022 -17.84765625 3.35546875 C-18.89953125 3.45859375 -19.95140625 3.56171875 -21.03515625 3.66796875 C-45.13623311 44.39047793 -23.68502995 118.51935283 -13.03515625 160.66796875 C-11.06764265 157.71669835 -10.33580238 155.64146808 -9.4140625 152.2578125 C-8.97030273 150.6480957 -8.97030273 150.6480957 -8.51757812 149.00585938 C-8.21400391 147.88373047 -7.91042969 146.76160156 -7.59765625 145.60546875 C-6.99568426 143.40600551 -6.39283001 141.20678353 -5.7890625 139.0078125 C-5.49475342 137.93354004 -5.20044434 136.85926758 -4.8972168 135.75244141 C-4.11940638 132.96941766 -3.30498756 130.20222478 -2.46484375 127.4375 C-1.05504817 122.7932747 0.19201586 118.11755687 1.40234375 113.41796875 C3.47102725 105.46471402 5.66136385 97.55642228 7.96484375 89.66796875 C8.29484375 89.66796875 8.62484375 89.66796875 8.96484375 89.66796875 C9.3036779 120.50187657 7.71124598 152.22331365 0.54003906 182.31176758 C-2.20634935 193.90415665 -0.10421608 201.19050647 4.40234375 211.98046875 C4.95745347 213.33307875 5.51213743 214.68586356 6.06640625 216.03881836 C16.13607223 240.47209721 28.05926743 263.48540832 43.96484375 284.66796875 C44.43277344 285.2928418 44.90070313 285.91771484 45.3828125 286.56152344 C51.77449569 295.03453203 58.59433646 303.023299 65.96484375 310.66796875 C66.62935547 311.35971191 67.29386719 312.05145508 67.97851562 312.76416016 C76.94254603 322.0460498 85.97247348 330.7989307 96.36181641 338.46630859 C97.9156718 339.63110851 99.43141286 340.84622152 100.9453125 342.0625 C103.58806793 344.17875564 106.26923561 346.19502985 109.00439453 348.1875 C110.42786156 349.26245692 111.82127983 350.37757114 113.19482422 351.515625 C123.23187507 359.78643006 131.64131325 364.81678971 144.87133789 363.60620117 C149.87007568 363.02692438 154.82539577 362.23742532 159.76538086 361.27905273 C182.01481318 357.02950454 205.44899989 357.45178511 228.01004028 357.36941528 C230.44892687 357.36023423 232.8878009 357.34626158 235.32662964 357.32711792 C254.289862 357.19556578 272.94659593 357.99350102 291.21484375 363.54296875 C292.04628906 363.77371094 292.87773438 364.00445313 293.734375 364.2421875 C304.0605728 367.26409515 313.90308619 372.53832902 319.90234375 381.73046875 C322.83120122 387.3858613 322.78322316 393.44828521 321.96484375 399.66796875 C321.30484375 400.65796875 320.64484375 401.64796875 319.96484375 402.66796875 C319.50335937 402.16007812 319.041875 401.6521875 318.56640625 401.12890625 C306.02462055 387.89310869 289.52010315 383.44102411 271.96484375 380.66796875 C270.98499512 380.4973291 270.00514648 380.32668945 268.99560547 380.15087891 C257.0415821 378.2786422 245.1619101 378.35928723 233.08984375 378.41796875 C231.45926529 378.42162445 231.45926529 378.42162445 229.79574585 378.425354 C214.11491402 378.46669429 198.544654 378.71967523 182.96484375 380.66796875 C182.19172852 380.76400391 181.41861328 380.86003906 180.62207031 380.95898438 C176.72360848 381.45796033 172.84119485 382.01613153 168.96484375 382.66796875 C206.25360135 400.67755215 248.92493599 419.58913182 290.90234375 419.98046875 C292.45211914 420.02397461 292.45211914 420.02397461 294.03320312 420.06835938 C302.36966841 420.13699398 308.66024844 418.69132191 314.90234375 412.98046875 C315.58296875 412.21734375 316.26359375 411.45421875 316.96484375 410.66796875 C317.62484375 410.33796875 318.28484375 410.00796875 318.96484375 409.66796875 C315.10291489 429.29944045 315.10291489 429.29944045 308.875 433.6796875 C278.34379334 449.47599688 236.77690151 435.98359246 206.25878906 426.51855469 C187.99869991 420.6786382 170.43740626 413.52695473 152.96484375 405.66796875 C152.09311523 405.27834961 151.22138672 404.88873047 150.32324219 404.48730469 C137.79639442 398.85915272 137.79639442 398.85915272 132.25 395.40234375 C131.64269043 395.02883789 131.03538086 394.65533203 130.40966797 394.27050781 C128.78913617 393.25379184 127.19395957 392.19695752 125.6015625 391.13671875 C117.22819653 387.75499415 107.52273131 389.78948602 98.875 391.42578125 C97.86051788 391.60923096 96.84603577 391.79268066 95.80081177 391.98168945 C92.54087287 392.57451313 89.28410885 393.18297062 86.02734375 393.79296875 C83.76416224 394.20992593 81.50089665 394.62642702 79.23754883 395.04248047 C55.6693718 399.39579137 32.2893762 404.22738172 9.01171875 409.953125 C3.42615748 411.32352885 -2.17227712 412.62108663 -7.78271484 413.88525391 C-30.56125287 419.02811991 -53.00538228 425.29971556 -75.41015625 431.85546875 C-76.2716629 432.10750061 -77.13316956 432.35953247 -78.02078247 432.61920166 C-88.89076383 435.80060013 -88.89076383 435.80060013 -99.71191406 439.14306641 C-100.81691757 439.49368889 -100.81691757 439.49368889 -101.94424438 439.85139465 C-103.32481572 440.29205198 -104.70412124 440.73670294 -106.08187866 441.18608093 C-108.8687535 442.07848855 -111.08539739 442.66796875 -114.03515625 442.66796875 C-114.45244995 443.76081177 -114.45244995 443.76081177 -114.87817383 444.87573242 C-116.77456889 449.45245121 -119.28247138 453.67525711 -121.72265625 457.98046875 C-122.2942749 458.98940186 -122.86589355 459.99833496 -123.45483398 461.0378418 C-140.95719577 491.66047154 -160.69262356 521.3467133 -183.03515625 548.66796875 C-183.78667969 549.60640625 -184.53820312 550.54484375 -185.3125 551.51171875 C-199.83232018 569.23082134 -216.20094304 587.31459947 -238.03515625 595.66796875 C-239.17017578 596.14363281 -239.17017578 596.14363281 -240.328125 596.62890625 C-246.26842133 598.92091439 -251.72234141 599.13460639 -258.03515625 598.66796875 C-258.88722656 598.60996094 -259.73929688 598.55195312 -260.6171875 598.4921875 C-271.77442655 597.10380543 -284.35264879 590.89922674 -292.03515625 582.66796875 C-295.05188257 576.39608069 -294.97292756 570.18352075 -293.1953125 563.51953125 C-284.37376147 538.98552064 -264.16046392 518.51129607 -244.03515625 502.66796875 C-242.51921875 501.46140625 -242.51921875 501.46140625 -240.97265625 500.23046875 C-222.80425319 485.90327271 -202.85776644 474.10958154 -182.41015625 463.35546875 C-181.31268066 462.77369873 -180.21520508 462.19192871 -179.08447266 461.5925293 C-178.06530762 461.0644165 -177.04614258 460.53630371 -175.99609375 459.9921875 C-175.08649902 459.51869873 -174.1769043 459.04520996 -173.23974609 458.55737305 C-172.51223145 458.26386963 -171.7847168 457.97036621 -171.03515625 457.66796875 C-170.37515625 457.99796875 -169.71515625 458.32796875 -169.03515625 458.66796875 C-171.53298198 461.02445099 -174.0338244 463.37770891 -176.53515625 465.73046875 C-177.23125 466.38724609 -177.92734375 467.04402344 -178.64453125 467.72070312 C-182.74182058 471.57139634 -186.90108651 475.32923175 -191.14550781 479.0168457 C-200.9883314 487.61723536 -210.2846944 496.81589888 -219.53515625 506.04296875 C-220.46666504 506.96988525 -221.39817383 507.89680176 -222.35791016 508.85180664 C-227.45671216 513.96209864 -232.38608261 519.14471033 -237.03515625 524.66796875 C-237.7619458 525.52672607 -237.7619458 525.52672607 -238.50341797 526.40283203 C-252.40049469 543.00756638 -269.10017067 563.2705106 -271.03515625 585.66796875 C-244.72531218 576.59128169 -223.84703195 556.34000488 -207.03515625 534.66796875 C-206.13450226 533.56525793 -205.23064811 532.46515589 -204.32421875 531.3671875 C-178.51803848 499.95863254 -157.70405483 464.14062479 -138.03515625 428.66796875 C-137.06213318 426.92182832 -136.0891046 425.17569095 -135.1158905 423.42965698 C-128.01622655 410.68322221 -121.03131343 397.88953942 -114.33618164 384.92456055 C-110.95585094 378.38894756 -107.46065633 371.92501687 -103.91015625 365.48046875 C-99.64986522 357.73573561 -95.59417573 349.91620791 -91.6809082 341.9909668 C-88.90545312 336.37729368 -86.0353041 330.8233374 -83.09765625 325.29296875 C-72.74268532 305.72840768 -63.21850666 285.80701264 -54.03515625 265.66796875 C-53.75782654 265.06003479 -53.48049683 264.45210083 -53.19476318 263.82574463 C-49.60872198 255.95808828 -46.06906505 248.07123422 -42.57958984 240.16015625 C-41.55317676 237.83928797 -40.51968286 235.52153783 -39.47900391 233.20703125 C-38.01860586 229.95272516 -36.58594443 226.68755854 -35.16015625 223.41796875 C-34.50720581 221.98179199 -34.50720581 221.98179199 -33.84106445 220.51660156 C-29.23764478 209.76730525 -32.36767561 201.80923513 -35.67126465 190.94326782 C-36.72053557 187.48160225 -37.73737375 184.01045866 -38.75390625 180.5390625 C-38.95481873 179.85349777 -39.1557312 179.16793304 -39.36273193 178.46159363 C-43.75585624 163.39664708 -46.78776283 148.19266538 -49.42480469 132.72973633 C-49.62106445 131.58142334 -49.81732422 130.43311035 -50.01953125 129.25 C-50.19194336 128.22108643 -50.36435547 127.19217285 -50.54199219 126.13208008 C-50.92098688 123.67715021 -50.92098688 123.67715021 -52.03515625 121.66796875 C-52.30052389 120.09571534 -52.52148622 118.51583513 -52.71875 116.93359375 C-52.90171631 115.49415405 -52.90171631 115.49415405 -53.08837891 114.02563477 C-53.21519043 113.00010498 -53.34200195 111.9745752 -53.47265625 110.91796875 C-53.73875798 108.80718745 -54.005682 106.69650965 -54.2734375 104.5859375 C-54.40314941 103.56290527 -54.53286133 102.53987305 -54.66650391 101.48583984 C-55.1149014 98.05842009 -55.63247475 94.64651216 -56.16015625 91.23046875 C-58.06803237 77.91483864 -58.24510943 64.45998246 -58.27539062 51.03027344 C-58.28519879 48.40659045 -58.31641243 45.7836605 -58.34765625 43.16015625 C-58.43300846 29.58739466 -57.55378787 16.48050441 -48.35546875 5.69921875 C-37.46591236 -4.96441323 -13.18163421 -8.50966259 0 0 Z " fill="#FEFCFC" transform="translate(498.03515625,214.33203125)"/>
<path d="M0 0 C3.59252186 0.0266726 7.1850525 0.05041159 10.77759933 0.07344818 C71.73061506 0.47891999 71.73061506 0.47891999 96.34061813 4.9021225 C98.19856003 5.226362 98.19856003 5.226362 100.0940361 5.55715179 C135.59804599 12.00636483 168.62850853 26.73077964 195.84061813 50.6521225 C196.78550095 51.47583344 197.73038376 52.29954437 198.70389938 53.14821625 C204.1769077 58.01393541 209.22527356 62.97020669 213.84061813 68.6521225 C214.66046188 69.63438812 215.48030563 70.61665375 216.32499313 71.628685 C261.49422882 126.6490464 263.00394475 195.71455409 262.98600185 263.52178168 C262.98579481 268.4205323 262.99134507 273.31927732 262.99605942 278.21802521 C263.00430208 287.78174768 263.00711135 297.34546399 263.0076718 306.90918973 C263.00815005 314.69857528 263.01022009 322.48795883 263.01337242 330.27734375 C263.02216188 352.45361178 263.02679453 374.62987502 263.02604195 396.8061448 C263.02598201 398.59267964 263.02598201 398.59267964 263.02592087 400.41530609 C263.02585955 402.20407016 263.02585955 402.20407016 263.02579699 404.02897087 C263.02539109 423.32686916 263.03495085 442.62474789 263.04905923 461.92264053 C263.06349446 481.82768695 263.0703255 501.73272388 263.06946546 521.63777566 C263.06913592 532.77663772 263.07177472 543.91547927 263.08264351 555.05433655 C263.09184328 564.54207288 263.09384743 574.02977941 263.08713409 583.51751831 C263.08391575 588.33851185 263.08363721 593.15944855 263.09248734 597.98043633 C263.12487541 616.83247417 262.9116964 635.62503831 261.90746689 654.4536972 C261.86566668 655.2409252 261.82386647 656.0281532 261.78079959 656.83923659 C258.84441346 710.7964489 243.40703685 759.78278156 205.84061813 799.6521225 C205.27085251 800.26313812 204.70108688 800.87415375 204.11405563 801.503685 C199.0999721 806.70787597 193.50274476 811.17685018 187.84061813 815.6521225 C186.94729782 816.3739975 186.05397751 817.0958725 185.13358688 817.8396225 C149.07183284 846.08379349 104.4926897 856.18497205 59.65542221 858.71797943 C58.49784997 858.78346964 58.49784997 858.78346964 57.31689244 858.85028288 C38.64275904 859.87836789 19.9858071 859.93944317 1.28838575 859.91357183 C-3.67902098 859.90895073 -8.64641512 859.91607773 -13.61381912 859.92153168 C-23.29081433 859.93032697 -32.96777815 859.92854832 -42.64477449 859.9227064 C-50.5249876 859.91815018 -58.40519205 859.91759389 -66.28540611 859.91975403 C-67.98140182 859.92021373 -67.98140182 859.92021373 -69.71166008 859.92068271 C-72.01011379 859.9213223 -74.30856751 859.92197073 -76.60702122 859.9226279 C-98.05370958 859.92830236 -119.50038072 859.92181906 -140.94706625 859.91102716 C-159.26239426 859.90209553 -177.5776969 859.90364616 -195.89302444 859.91286469 C-217.27256357 859.9236208 -238.65208769 859.92775204 -260.03162915 859.92164016 C-262.32093338 859.9210032 -264.61023762 859.92037446 -266.89954185 859.91975403 C-268.58816931 859.9192912 -268.58816931 859.9192912 -270.31091044 859.91881903 C-278.16121172 859.91710793 -286.01150329 859.91997254 -293.86180305 859.92471313 C-303.45802405 859.93038186 -313.05421242 859.92868201 -322.65042978 859.91815165 C-327.52604846 859.91297392 -332.40161321 859.91069896 -337.27723122 859.91744995 C-355.99324005 859.94111099 -374.65691516 859.75290043 -393.3494606 858.74922943 C-394.10352278 858.70959061 -394.85758497 858.66995179 -395.63449752 858.6291118 C-442.21294923 856.11375417 -489.20255767 843.77705234 -525.15938187 812.6521225 C-525.92895218 811.9921225 -526.69852249 811.3321225 -527.49141312 810.6521225 C-530.09409878 808.36478647 -532.63353409 806.02412969 -535.15938187 803.6521225 C-535.69079788 803.15470551 -536.2222139 802.65728851 -536.76973343 802.14479828 C-579.53009362 761.78986098 -594.47085614 704.41317389 -596.23172331 647.30599689 C-596.36707528 641.36837909 -596.41850412 635.42980689 -596.47139359 629.49098969 C-596.49188149 627.49782092 -596.51258604 625.50465436 -596.53348541 623.51148987 C-596.5889244 618.06021517 -596.63773065 612.60890078 -596.68434763 607.15754414 C-596.71444316 603.65550144 -596.74588847 600.15347269 -596.7775116 596.65144348 C-597.32421097 535.2527128 -597.3125871 473.85283797 -597.28884372 412.45218712 C-597.28432165 400.52761802 -597.28519873 388.60305864 -597.28975296 376.67848969 C-597.29516128 362.5127693 -597.29718487 348.34705458 -597.2941407 334.1813333 C-597.2938224 332.66107543 -597.29350802 331.14081756 -597.29319763 329.62055969 C-597.29296622 328.500968 -597.29296622 328.500968 -597.29273013 327.35875829 C-597.2918877 322.24642372 -597.29329578 317.13409301 -597.29567719 312.02175903 C-597.30718642 284.89223365 -597.27021356 257.76811112 -596.70186234 230.64333344 C-596.68164969 229.66365239 -596.66143704 228.68397134 -596.64061189 227.67460299 C-595.2750108 163.50503368 -582.89280601 106.88425021 -538.15938187 58.6521225 C-537.6218428 58.06044281 -537.08430374 57.46876312 -536.53047562 56.85915375 C-510.06913421 28.93879101 -471.27797834 12.55381756 -434.15938187 5.6521225 C-432.95765335 5.42468353 -432.95765335 5.42468353 -431.73164749 5.19264984 C-401.90749357 -0.28412698 -371.23349578 0.24649149 -341.03256989 0.05082703 C-337.40985195 0.02670955 -333.78716848 -0.00051824 -330.1644783 -0.02848053 C-233.88513989 -0.75999849 -137.58856756 -0.67335945 0 0 Z M-529.31172562 61.61696625 C-533.12201799 65.81392677 -536.67944654 70.17874987 -540.15938187 74.6521225 C-540.9418428 75.64470062 -541.72430374 76.63727875 -542.53047562 77.659935 C-579.28421409 125.74700149 -579.50758358 187.08755803 -579.40617216 244.76704669 C-579.39946875 249.86712282 -579.40457036 254.96719088 -579.40805435 260.06726837 C-579.41304442 270.00601167 -579.4075219 279.94472117 -579.39820405 289.88346025 C-579.38772104 301.48988498 -579.3878928 313.09630277 -579.38837663 324.70273134 C-579.38887499 345.4213831 -579.37977506 366.14001931 -579.36519241 386.85866547 C-579.35108764 406.90912407 -579.34402278 426.95956902 -579.3446846 447.01003265 C-579.34472456 448.24701445 -579.34476451 449.48399625 -579.34480568 450.75846234 C-579.34484603 451.99342823 -579.34488639 453.22839411 -579.34492797 454.50078321 C-579.34561943 477.42183407 -579.33972138 500.34287919 -579.33077475 523.26392819 C-579.32777232 531.33360612 -579.32669688 539.403283 -579.32624245 547.47296143 C-579.32555719 557.31198261 -579.32104892 567.15099411 -579.31190964 576.99001119 C-579.30732464 581.99930461 -579.30423386 587.00858573 -579.30550385 592.01788139 C-579.31881348 659.89525948 -574.95346562 724.71472815 -524.55391312 775.26540375 C-523.36862015 776.44682953 -523.36862015 776.44682953 -522.15938187 777.6521225 C-521.5599678 778.28634125 -520.96055374 778.92056 -520.34297562 779.5739975 C-501.55658444 799.24297081 -473.75403378 813.95776747 -447.29610062 819.91384125 C-445.45633816 820.3468613 -443.62247509 820.81061711 -441.80977249 821.34572601 C-434.66330856 823.43786237 -427.68503574 824.48235639 -420.28438187 825.2146225 C-418.69110062 825.38381195 -418.69110062 825.38381195 -417.06563187 825.55641937 C-414.82695236 825.79103508 -412.58741779 826.01762023 -410.34714282 826.23647755 C-407.39572161 826.52534855 -404.44719986 826.83535701 -401.4988302 827.15379125 C-389.63798363 828.40164849 -377.95113678 828.93801282 -366.03087234 828.89936066 C-364.20852548 828.90095449 -362.38617921 828.90342373 -360.56383455 828.90667707 C-355.62351796 828.91300939 -350.68328502 828.90708645 -345.74297404 828.89891279 C-340.38922055 828.8922719 -335.03547545 828.89729796 -329.68172073 828.90079498 C-319.22197159 828.90581088 -308.76225432 828.90022877 -298.30250914 828.89094468 C-286.10568951 828.88051148 -273.9088766 828.88063216 -261.71205334 828.88111726 C-239.94497778 828.88161678 -218.17791696 828.87248533 -196.41084671 828.85793304 C-175.3157919 828.84383745 -154.22075005 828.83676282 -133.12569046 828.83742523 C-131.82541065 828.83746519 -130.52513083 828.83750514 -129.1854486 828.83754631 C-127.2383101 828.83760684 -127.2383101 828.83760684 -125.25183547 828.8376686 C-101.18942194 828.83835926 -77.12701389 828.83246507 -53.06460214 828.82351538 C-44.57295734 828.82050588 -36.08131355 828.81943665 -27.58966827 828.81898308 C-17.23891354 828.81829937 -6.88816806 828.81381265 3.46258275 828.80465027 C8.73838439 828.80004937 14.01417425 828.79698047 19.28997803 828.79824448 C24.126941 828.79934712 28.963878 828.79577511 33.80083556 828.78859595 C35.54272339 828.78679704 37.28461392 828.78663808 39.02650182 828.78836324 C56.17607427 829.43260254 56.17607427 829.43260254 72.84061813 826.6521225 C74.92191698 826.4968875 77.00593287 826.37707316 79.09061813 826.2771225 C85.64121285 825.85123244 91.86972147 824.78447652 98.28202438 823.409935 C102.32895395 822.54813002 106.3906779 821.84720618 110.47343063 821.17946625 C113.08067806 820.5986438 115.37876997 819.68211919 117.84061813 818.6521225 C119.27394778 818.16062167 120.71145688 817.68111983 122.15311813 817.2146225 C131.43859533 814.14504326 140.45207398 810.72939922 148.84061813 805.6521225 C149.87186813 805.2396225 150.90311813 804.8271225 151.96561813 804.4021225 C166.7451927 798.20938499 179.3694087 786.59683692 190.84061813 775.6521225 C191.63339157 774.91220062 192.42616501 774.17227875 193.24296188 773.409935 C211.85526962 755.54997011 225.9193835 731.06329108 233.84061813 706.6521225 C234.06201462 705.97133636 234.2834111 705.29055023 234.51151657 704.58913422 C245.71743998 669.25180598 245.14894936 631.95989279 245.11672652 595.30276453 C245.11422441 589.95222966 245.12331586 584.60171113 245.13076401 579.25118256 C245.14341702 568.80955734 245.14531661 558.36795795 245.14296374 547.92632636 C245.14117007 539.42757673 245.14295251 530.92883484 245.14718819 522.43008614 C245.14778338 521.21376945 245.14837856 519.99745276 245.14899179 518.74427799 C245.15020372 516.27219488 245.15141785 513.80011177 245.15263417 511.32802866 C245.16347316 488.22289093 245.16136434 465.11776785 245.15524932 442.01262931 C245.1500815 420.94549656 245.16133861 399.87841007 245.18034754 378.81128647 C245.19978883 357.09589121 245.20797107 335.38051776 245.20422429 313.66511375 C245.20232201 301.50702217 245.2047042 289.34896995 245.21893883 277.19088554 C245.23093409 266.84225828 245.23216713 256.49369462 245.22014866 246.14506634 C245.214317 240.88124152 245.21299907 235.61753255 245.22515106 230.3537159 C245.36536755 165.04799267 237.37373217 104.46558977 189.84061813 55.6521225 C187.27871644 53.1725309 184.61656281 50.88843519 181.84061813 48.6521225 C180.90862595 47.89415375 179.97663376 47.136185 179.01639938 46.3552475 C135.36001104 11.46859455 82.72415322 4.4621612 28.44028854 4.51840973 C26.68454336 4.51653495 24.92879859 4.51423164 23.17305446 4.51154441 C18.41154424 4.50550207 13.65005177 4.50555093 8.8885386 4.50673878 C3.72803628 4.50694474 -1.43246063 4.50140558 -6.59296036 4.49668121 C-16.6808775 4.48841528 -26.76878879 4.4856282 -36.85670903 4.48506884 C-45.06867717 4.48459165 -53.2806434 4.48252683 -61.49261093 4.47936821 C-84.84147235 4.47057194 -108.1903292 4.46594711 -131.53919229 4.46669868 C-132.79492419 4.46673864 -134.05065608 4.4667786 -135.34444046 4.46681976 C-137.23037328 4.46688108 -137.23037328 4.46688108 -139.15440574 4.46694364 C-159.50431573 4.4673496 -179.85420716 4.45779002 -200.20411178 4.4436814 C-221.1643708 4.42926583 -242.12462079 4.42241408 -263.08488488 4.42327517 C-274.82615331 4.42360541 -286.5674023 4.42093524 -298.30866623 4.41009712 C-308.30982029 4.40092353 -318.31094611 4.3988724 -328.31210259 4.40560655 C-333.3996451 4.40883782 -338.48713365 4.4090539 -343.57467079 4.4002533 C-412.10138519 4.28945337 -478.96030588 9.55509489 -529.31172562 61.61696625 Z " fill="#000000" transform="translate(679.1593818664551,95.3478775024414)"/>
<path d="M0 0 C2.17785732 2.76106408 3.86497843 5.50028652 5.42578125 8.6484375 C15.19386333 28.03221615 26.1256217 46.27294579 40 63 C40.74507812 63.93585937 41.49015625 64.87171875 42.2578125 65.8359375 C54.09041642 80.63729509 67.37987668 95.0473372 82.2578125 106.8203125 C85.21141605 109.16804865 88.06924623 111.61144678 90.9375 114.0625 C95.99474791 118.31111849 101.2012936 121.90542471 106.796875 125.40625 C107.52390625 125.9321875 108.2509375 126.458125 109 127 C109 127.66 109 128.32 109 129 C108.37061523 129.10957031 107.74123047 129.21914063 107.09277344 129.33203125 C43.98164926 140.42551932 -18.65439113 157.3255231 -78.12231445 181.30859375 C-79.00363037 181.66308594 -79.88494629 182.01757812 -80.79296875 182.3828125 C-81.5614917 182.69621582 -82.33001465 183.00961914 -83.12182617 183.33251953 C-85 184 -85 184 -87 184 C-85.45430832 178.58576153 -82.93457195 174.05574058 -80.1875 169.1875 C-70.74186905 152.15317344 -62.01781041 134.73382788 -53.20227051 117.36810303 C-52.10030073 115.19756158 -50.99706782 113.02766721 -49.89355469 110.85791016 C-41.20128573 93.75107441 -32.9114148 76.4817725 -25 59 C-24.69431091 58.32545776 -24.38862183 57.65091553 -24.07366943 56.95593262 C-15.99302625 39.10900558 -8.2201987 21.2665636 -1.70166016 2.77709961 C-1 1 -1 1 0 0 Z " fill="#C11D03" transform="translate(481,457)"/>
<path d="M0 0 C0.33 0 0.66 0 1 0 C1 5.94 1 11.88 1 18 C0.67 18 0.34 18 0 18 C-0.144375 16.7625 -0.28875 15.525 -0.4375 14.25 C-0.70594353 11.99981157 -0.9888794 10.03437276 -1.6875 7.875 C-2.17364881 4.95810712 -1.0439431 2.70197038 0 0 Z " fill="#FAD8D2" transform="translate(506,304)"/>
</svg>
