<?xml version="1.0" encoding="UTF-8"?>
<svg version="1.1" xmlns="http://www.w3.org/2000/svg" width="1024" height="1024">
<path d="M0 0 C12.12964233 0.00446895 24.25927488 0.00363976 36.38891704 -0.00090924 C160.09538818 -0.04581493 160.09538818 -0.04581493 203.50923713 0.48508558 C205.72481566 0.51149683 207.94040767 0.53518001 210.15602405 0.55816898 C231.87707922 0.79188837 253.75521568 1.40428912 275.23144634 4.94196185 C276.29572857 5.11300434 277.36001079 5.28404682 278.456544 5.4602724 C318.5099306 12.12387882 354.6623579 27.39054909 384.71191509 55.1099306 C386.63376786 56.86851093 388.59542123 58.5376596 390.60644634 60.19196185 C394.46919347 63.49904699 397.69226941 67.20819694 400.91894634 71.12946185 C401.73234478 72.10528217 402.54574322 73.08110248 403.38379009 74.0864931 C427.00243461 102.93168448 440.67289701 136.54633859 446.91894634 173.12946185 C447.1485606 174.47016742 447.1485606 174.47016742 447.38281353 175.83795795 C449.36847664 187.93265427 450.29517895 200.1065063 450.98480327 212.33453998 C451.05029348 213.4933447 451.05029348 213.4933447 451.11710672 214.67555961 C452.13675743 233.20672333 452.20639023 251.71934002 452.18039568 270.27363834 C452.17577309 275.18172073 452.18290224 280.08979041 452.18835552 284.99787006 C452.19714912 294.55822306 452.19537301 304.11854429 452.18953024 313.67889842 C452.1849736 321.46377308 452.18441791 329.24863897 452.18657787 337.03351459 C452.18688434 338.15059031 452.1871908 339.26766604 452.18750656 340.41859254 C452.18814615 342.68942699 452.18879457 344.96026144 452.18945174 347.23109588 C452.19512563 368.41784734 452.18864368 389.60458136 452.17785101 410.79132995 C452.1689182 428.88582013 452.17047107 446.98028463 452.17968853 465.07477435 C452.19044354 486.19684132 452.19457659 507.31889308 452.188464 528.4409624 C452.18782705 530.70244464 452.1871983 532.96392688 452.18657787 535.22540912 C452.18626932 536.33748092 452.18596077 537.44955271 452.18564287 538.59532365 C452.18393154 546.35141712 452.18679687 554.10750077 452.19153698 561.86359271 C452.19720442 571.34346144 452.19550839 580.82329714 452.18497549 590.30316219 C452.17979628 595.11992446 452.17752552 599.93663214 452.18427379 604.75339374 C452.26440033 667.23744065 451.11562174 734.90770997 411.91894634 787.12946185 C411.48227642 787.71727435 411.0456065 788.30508685 410.59570415 788.91071185 C376.4990786 834.47106969 327.75749913 860.33788598 271.80243213 868.41159472 C260.96912614 869.87128791 250.07818236 870.59735436 239.16943462 871.19531879 C238.37474026 871.23897893 237.58004589 871.28263906 236.76126988 871.32762223 C218.12189393 872.32557535 199.50398863 872.41723358 180.84244926 872.39091119 C175.9616321 872.38628437 171.08082764 872.39341973 166.20001324 872.39887103 C156.69494133 872.40766036 147.1899014 872.4058905 137.68482836 872.40004575 C129.94432258 872.39548737 122.20382563 872.39493416 114.4633189 872.39709339 C112.79666772 872.39755308 112.79666772 872.39755308 111.09634681 872.39802207 C108.83759363 872.39866167 106.57884045 872.39931009 104.32008727 872.39996725 C83.25061673 872.40563989 62.18116374 872.39916119 41.11169608 872.38836652 C23.12100511 872.37943383 5.13033997 872.38098674 -12.86035053 872.39020404 C-33.86597198 872.40096131 -54.87157814 872.40509086 -75.87720196 872.39897951 C-78.12661004 872.39834257 -80.37601813 872.39771382 -82.62542622 872.39709339 C-83.73153409 872.39678483 -84.83764197 872.39647628 -85.97726826 872.39615838 C-93.68831984 872.39444772 -101.39936153 872.3973109 -109.11041157 872.40205249 C-118.53642876 872.40772248 -127.96241274 872.40601876 -137.38842623 872.395491 C-142.17696573 872.3903151 -146.96545034 872.388035 -151.75398915 872.39478931 C-170.31802424 872.41874861 -188.82309061 872.21228327 -207.36279194 871.19531879 C-208.50912307 871.13265804 -208.50912307 871.13265804 -209.6786124 871.06873143 C-222.2310794 870.365279 -234.68712223 869.29322614 -247.08105366 867.12946185 C-247.98823139 866.97139057 -248.89540913 866.81331928 -249.8300771 866.65045795 C-291.66766589 859.05620018 -327.40992348 841.34210472 -358.08105366 812.12946185 C-359.32435444 810.98284076 -359.32435444 810.98284076 -360.59277241 809.8130556 C-403.77674782 768.71526258 -417.37438059 707.57777597 -419.20627873 650.20775661 C-419.28878022 646.08539559 -419.34702919 641.96353571 -419.39306538 637.8406435 C-419.41361597 636.22749961 -419.43431919 634.61435766 -419.45515721 633.00121745 C-419.51095483 628.53208033 -419.55972059 624.0628931 -419.60601942 619.59364828 C-419.63624316 616.67870259 -419.66770328 613.76377174 -419.69918339 610.84883937 C-420.35015452 549.37324387 -420.23255216 487.89160996 -420.21051551 426.41340809 C-420.20600552 413.58250953 -420.2068573 400.75162003 -420.21142475 387.92072162 C-420.21682265 372.75131819 -420.2188612 357.58192005 -420.21581249 342.41251579 C-420.21549414 340.7862183 -420.21517977 339.1599208 -420.21486942 337.53362331 C-420.21463801 336.33541175 -420.21463801 336.33541175 -420.21440192 335.11299391 C-420.21355544 329.6112689 -420.21497803 324.10954745 -420.21734898 318.60782298 C-420.23935203 262.36297223 -420.23935203 262.36297223 -419.64697163 236.62579975 C-419.62836024 235.78848973 -419.60974885 234.95117971 -419.59057347 234.08849666 C-418.05351024 167.66561764 -403.91361896 105.51394341 -355.28417866 57.3599306 C-318.06992903 22.20755156 -269.49884269 5.89489705 -219.08105366 2.12946185 C-218.12034962 2.05212818 -217.15964558 1.9747945 -216.16982929 1.89511737 C-201.82802987 0.860155 -187.45742942 0.75964307 -173.08495991 0.57477435 C-172.30664539 0.56441229 -171.52833087 0.55405022 -170.72643106 0.54337415 C-113.82295906 -0.21172205 -56.90733102 -0.02137537 0 0 Z " fill="#1C1B1B" transform="translate(496.0810536593199,85.87053814530373)"/>
<path d="M0 0 C12.12964233 0.00446895 24.25927488 0.00363976 36.38891704 -0.00090924 C160.09538818 -0.04581493 160.09538818 -0.04581493 203.50923713 0.48508558 C205.72481566 0.51149683 207.94040767 0.53518001 210.15602405 0.55816898 C231.87707922 0.79188837 253.75521568 1.40428912 275.23144634 4.94196185 C276.29572857 5.11300434 277.36001079 5.28404682 278.456544 5.4602724 C318.5099306 12.12387882 354.6623579 27.39054909 384.71191509 55.1099306 C386.63376786 56.86851093 388.59542123 58.5376596 390.60644634 60.19196185 C394.46919347 63.49904699 397.69226941 67.20819694 400.91894634 71.12946185 C401.73234478 72.10528217 402.54574322 73.08110248 403.38379009 74.0864931 C427.00243461 102.93168448 440.67289701 136.54633859 446.91894634 173.12946185 C447.1485606 174.47016742 447.1485606 174.47016742 447.38281353 175.83795795 C449.36847664 187.93265427 450.29517895 200.1065063 450.98480327 212.33453998 C451.05029348 213.4933447 451.05029348 213.4933447 451.11710672 214.67555961 C452.13675743 233.20672333 452.20639023 251.71934002 452.18039568 270.27363834 C452.17577309 275.18172073 452.18290224 280.08979041 452.18835552 284.99787006 C452.19714912 294.55822306 452.19537301 304.11854429 452.18953024 313.67889842 C452.1849736 321.46377308 452.18441791 329.24863897 452.18657787 337.03351459 C452.18688434 338.15059031 452.1871908 339.26766604 452.18750656 340.41859254 C452.18814615 342.68942699 452.18879457 344.96026144 452.18945174 347.23109588 C452.19512563 368.41784734 452.18864368 389.60458136 452.17785101 410.79132995 C452.1689182 428.88582013 452.17047107 446.98028463 452.17968853 465.07477435 C452.19044354 486.19684132 452.19457659 507.31889308 452.188464 528.4409624 C452.18782705 530.70244464 452.1871983 532.96392688 452.18657787 535.22540912 C452.18626932 536.33748092 452.18596077 537.44955271 452.18564287 538.59532365 C452.18393154 546.35141712 452.18679687 554.10750077 452.19153698 561.86359271 C452.19720442 571.34346144 452.19550839 580.82329714 452.18497549 590.30316219 C452.17979628 595.11992446 452.17752552 599.93663214 452.18427379 604.75339374 C452.26440033 667.23744065 451.11562174 734.90770997 411.91894634 787.12946185 C411.48227642 787.71727435 411.0456065 788.30508685 410.59570415 788.91071185 C376.4990786 834.47106969 327.75749913 860.33788598 271.80243213 868.41159472 C260.96912614 869.87128791 250.07818236 870.59735436 239.16943462 871.19531879 C238.37474026 871.23897893 237.58004589 871.28263906 236.76126988 871.32762223 C218.12189393 872.32557535 199.50398863 872.41723358 180.84244926 872.39091119 C175.9616321 872.38628437 171.08082764 872.39341973 166.20001324 872.39887103 C156.69494133 872.40766036 147.1899014 872.4058905 137.68482836 872.40004575 C129.94432258 872.39548737 122.20382563 872.39493416 114.4633189 872.39709339 C112.79666772 872.39755308 112.79666772 872.39755308 111.09634681 872.39802207 C108.83759363 872.39866167 106.57884045 872.39931009 104.32008727 872.39996725 C83.25061673 872.40563989 62.18116374 872.39916119 41.11169608 872.38836652 C23.12100511 872.37943383 5.13033997 872.38098674 -12.86035053 872.39020404 C-33.86597198 872.40096131 -54.87157814 872.40509086 -75.87720196 872.39897951 C-78.12661004 872.39834257 -80.37601813 872.39771382 -82.62542622 872.39709339 C-83.73153409 872.39678483 -84.83764197 872.39647628 -85.97726826 872.39615838 C-93.68831984 872.39444772 -101.39936153 872.3973109 -109.11041157 872.40205249 C-118.53642876 872.40772248 -127.96241274 872.40601876 -137.38842623 872.395491 C-142.17696573 872.3903151 -146.96545034 872.388035 -151.75398915 872.39478931 C-170.31802424 872.41874861 -188.82309061 872.21228327 -207.36279194 871.19531879 C-208.50912307 871.13265804 -208.50912307 871.13265804 -209.6786124 871.06873143 C-222.2310794 870.365279 -234.68712223 869.29322614 -247.08105366 867.12946185 C-247.98823139 866.97139057 -248.89540913 866.81331928 -249.8300771 866.65045795 C-291.66766589 859.05620018 -327.40992348 841.34210472 -358.08105366 812.12946185 C-359.32435444 810.98284076 -359.32435444 810.98284076 -360.59277241 809.8130556 C-403.77674782 768.71526258 -417.37438059 707.57777597 -419.20627873 650.20775661 C-419.28878022 646.08539559 -419.34702919 641.96353571 -419.39306538 637.8406435 C-419.41361597 636.22749961 -419.43431919 634.61435766 -419.45515721 633.00121745 C-419.51095483 628.53208033 -419.55972059 624.0628931 -419.60601942 619.59364828 C-419.63624316 616.67870259 -419.66770328 613.76377174 -419.69918339 610.84883937 C-420.35015452 549.37324387 -420.23255216 487.89160996 -420.21051551 426.41340809 C-420.20600552 413.58250953 -420.2068573 400.75162003 -420.21142475 387.92072162 C-420.21682265 372.75131819 -420.2188612 357.58192005 -420.21581249 342.41251579 C-420.21549414 340.7862183 -420.21517977 339.1599208 -420.21486942 337.53362331 C-420.21463801 336.33541175 -420.21463801 336.33541175 -420.21440192 335.11299391 C-420.21355544 329.6112689 -420.21497803 324.10954745 -420.21734898 318.60782298 C-420.23935203 262.36297223 -420.23935203 262.36297223 -419.64697163 236.62579975 C-419.62836024 235.78848973 -419.60974885 234.95117971 -419.59057347 234.08849666 C-418.05351024 167.66561764 -403.91361896 105.51394341 -355.28417866 57.3599306 C-318.06992903 22.20755156 -269.49884269 5.89489705 -219.08105366 2.12946185 C-218.12034962 2.05212818 -217.15964558 1.9747945 -216.16982929 1.89511737 C-201.82802987 0.860155 -187.45742942 0.75964307 -173.08495991 0.57477435 C-172.30664539 0.56441229 -171.52833087 0.55405022 -170.72643106 0.54337415 C-113.82295906 -0.21172205 -56.90733102 -0.02137537 0 0 Z M-340.08105366 66.12946185 C-340.58668842 66.60786518 -341.09232319 67.0862685 -341.61328022 67.57916889 C-384.00558085 107.83166767 -394.40447996 163.55682487 -395.94104817 219.74901653 C-396.29766699 234.11959534 -396.22195071 248.49889431 -396.21177833 262.87278935 C-396.20947837 267.6997575 -396.21302628 272.52672232 -396.21575825 277.35368976 C-396.22016669 286.76793197 -396.2192616 296.18216613 -396.21634561 305.59640863 C-396.21407188 313.25945607 -396.21378751 320.92250128 -396.21486942 328.58554897 C-396.21502266 329.68310257 -396.21517589 330.78065617 -396.21533377 331.91146897 C-396.21565355 334.14229254 -396.21597776 336.37311612 -396.21630636 338.60393969 C-396.21914675 359.44234147 -396.2158969 380.28073883 -396.21050599 401.11913989 C-396.2060399 418.93304825 -396.20681509 436.74695009 -396.21142475 454.56085834 C-396.21679716 475.33159487 -396.21887154 496.10232754 -396.21581249 516.87306467 C-396.215494 519.09522944 -396.21517963 521.31739421 -396.21486942 523.53955898 C-396.21471515 524.63242708 -396.21456087 525.72529518 -396.21440192 526.85128049 C-396.2135447 534.48938249 -396.2149824 542.127482 -396.21734898 549.7655836 C-396.22017696 559.09646543 -396.21934633 568.42733886 -396.21406823 577.75821974 C-396.21147109 582.50329189 -396.21035693 587.24835013 -396.21371739 591.99342212 C-396.22462955 608.91524182 -396.19274266 625.82678806 -395.6510915 642.74129352 C-395.61445051 643.90409711 -395.57780951 645.0669007 -395.54005818 646.26494077 C-394.41703014 676.84007987 -390.00749832 708.56078569 -376.08105366 736.12946185 C-375.75089253 736.79091205 -375.42073139 737.45236225 -375.08056538 738.13385639 C-370.11508941 748.03068915 -364.7339271 757.25115539 -358.08105366 766.12946185 C-357.43136616 767.00344623 -356.78167866 767.8774306 -356.11230366 768.77789935 C-330.96513616 800.98561772 -294.23294505 824.03683258 -254.08105366 832.12946185 C-252.93894428 832.3718056 -251.79683491 832.61414935 -250.62011616 832.86383685 C-221.7114242 838.55680298 -191.74420424 838.58069194 -162.40356927 838.49231777 C-157.56291715 838.4811741 -152.72227992 838.48787096 -147.88162129 838.49210224 C-138.4525885 838.49767007 -129.02363869 838.48754662 -119.59462 838.47181427 C-108.56023486 838.45406408 -97.52586466 838.45285057 -86.4914675 838.45219868 C-66.77009125 838.45051901 -47.04875211 838.43480945 -27.32739155 838.41071185 C-8.29353425 838.38747198 10.74029957 838.37328709 29.77417095 838.36969623 C30.9464214 838.36947346 32.11867185 838.3692507 33.32644504 838.36902118 C35.68884228 838.3685785 38.05123953 838.36813647 40.41363677 838.36769511 C42.16266885 838.36736576 42.16266885 838.36736576 43.94703491 838.36702976 C45.11055861 838.36681377 46.27408231 838.36659778 47.4728643 838.36637525 C65.75455439 838.36265157 84.03624081 838.35129306 102.31792678 838.33889936 C108.88749662 838.33450432 115.45706612 838.33104979 122.02663683 838.32827723 C132.45819648 838.32379687 142.88974248 838.31585976 153.32129359 838.30150282 C158.07157763 838.29500971 162.82185014 838.28984902 167.57213886 838.28904209 C186.31546463 838.28462987 205.04663675 838.15637902 223.7845927 837.68189105 C224.56838278 837.66252472 225.35217286 837.64315838 226.15971415 837.62320518 C234.80660911 837.40419872 243.4450418 837.08658651 252.08359344 836.64571628 C252.85698395 836.60700968 253.63037445 836.56830309 254.42720103 836.52842356 C299.73929784 834.09583893 342.4104922 815.71306666 374.91894634 784.12946185 C375.47002056 783.60175189 376.02109478 783.07404193 376.58886822 782.53034076 C380.89173697 778.3401436 384.66732569 773.91293562 388.29394634 769.12946185 C388.85484966 768.39107074 389.41575298 767.65267963 389.99365337 766.89191303 C399.99409585 753.5193614 408.64032962 738.5753729 414.02832134 722.73102435 C414.59892158 721.06427103 415.2103107 719.41060389 415.87207134 717.77789935 C427.23828747 689.36235903 428.08285247 656.82926153 428.05265911 626.60068378 C428.05453228 624.7944667 428.05683498 622.98825003 428.05952443 621.18203399 C428.0655865 616.26727392 428.06551551 611.35253101 428.06433006 606.43776807 C428.06412462 601.11779803 428.06965843 595.7978333 428.07438762 590.47786579 C428.08266432 580.07237437 428.08544113 569.66688862 428.086 559.26139419 C428.08647665 550.79425792 428.08853879 542.32712351 428.09170063 533.85998783 C428.10049961 509.80402333 428.10512127 485.74806329 428.10437015 461.69209717 C428.1043302 460.3975115 428.10429024 459.10292583 428.10424908 457.76911029 C428.10420819 456.47292631 428.10416731 455.17674234 428.10412519 453.84128006 C428.10371909 432.85408218 428.11328152 411.86690227 428.12738744 390.87970959 C428.14178862 369.28111273 428.14865555 347.68252461 428.14779367 326.08392283 C428.14746295 313.97779885 428.15015454 301.8716937 428.16097172 289.76557407 C428.17012617 279.45495315 428.17221175 269.14435959 428.16546229 258.83373635 C428.16222166 253.58481348 428.16205017 248.33594297 428.17081554 243.08702525 C428.27235474 178.06754507 422.02398912 116.99818799 374.91894634 68.12946185 C373.9424815 67.07565326 373.9424815 67.07565326 372.94629009 66.0005556 C361.98996347 54.48594482 348.65204878 45.93152718 334.91894634 38.12946185 C334.26732525 37.75692279 333.61570415 37.38438373 332.94433697 37.0005556 C295.83283413 16.15658199 251.27986748 13.95220474 209.67047222 13.99574909 C207.93122623 13.99387422 206.19198066 13.99157087 204.45273574 13.98888376 C199.73683176 13.9828425 195.02094571 13.98289016 190.30503877 13.98407814 C185.19361663 13.98428412 180.08219996 13.97874468 174.97078045 13.97402057 C164.97911717 13.96575523 154.9874598 13.96296758 144.99579339 13.96240819 C136.86200985 13.96193097 128.72822823 13.95986601 120.5944453 13.95670757 C97.46693399 13.94791145 74.33942729 13.94328644 51.21191429 13.94403804 C49.96813037 13.944078 48.72434646 13.94411795 47.44287212 13.94415912 C46.19754604 13.9442 44.95221995 13.94424088 43.66915672 13.944283 C23.51324245 13.94468895 3.35734691 13.93512951 -16.79856195 13.92102075 C-37.55993879 13.90660443 -58.32130653 13.89975348 -79.0826885 13.90061453 C-90.71217429 13.90094474 -102.34164047 13.89827571 -113.97112171 13.88743648 C-123.87712157 13.87826187 -133.78309291 13.87621256 -143.68909521 13.8829459 C-148.72803152 13.88617669 -153.76691335 13.88639514 -158.80584423 13.87759265 C-225.19976756 13.76918459 -289.67140408 17.8242928 -340.08105366 66.12946185 Z " fill="#000000" transform="translate(496.0810536593199,85.87053814530373)"/>
<path d="M0 0 C1.73924599 -0.00187487 3.47849156 -0.00417821 5.21773648 -0.00686532 C9.93364046 -0.01290658 14.64952651 -0.01285893 19.36543345 -0.01167095 C24.47685559 -0.01146496 29.58827226 -0.01700441 34.69969177 -0.02172852 C44.69135505 -0.02999386 54.68301242 -0.0327815 64.67467883 -0.03334089 C72.80846237 -0.03381811 80.94224399 -0.03588307 89.07602692 -0.03904152 C112.20353823 -0.04783764 135.33104493 -0.05246265 158.45855793 -0.05171105 C159.70234185 -0.05167109 160.94612576 -0.05163113 162.2276001 -0.05158997 C163.47292618 -0.05154909 164.71825227 -0.0515082 166.0013155 -0.05146609 C186.15722977 -0.05106013 206.31312531 -0.06061958 226.46903417 -0.07472833 C247.23041101 -0.08914466 267.99177875 -0.09599561 288.75316072 -0.09513456 C300.38264651 -0.09480435 312.01211268 -0.09747338 323.64159393 -0.10831261 C333.54759379 -0.11748722 343.45356513 -0.11953653 353.35956743 -0.11280318 C358.39850374 -0.1095724 363.43738557 -0.10935395 368.47631645 -0.11815643 C429.22472962 -0.2173465 492.75770631 1.87828467 540.75152588 44.13371277 C541.60230713 44.87492371 542.45308838 45.61613464 543.32965088 46.37980652 C545.83624169 48.5980625 548.30007 50.85478161 550.75152588 53.13371277 C551.82467041 54.10824402 551.82467041 54.10824402 552.91949463 55.10246277 C590.22340504 90.43585697 602.74285317 142.60568918 604.75152588 192.13371277 C604.91208741 198.31112988 604.89140792 204.49019184 604.88523865 210.66921997 C604.88711181 212.47614974 604.88941451 214.2830791 604.89210397 216.09000784 C604.89816605 221.00669852 604.89809505 225.92337205 604.89690959 230.8400656 C604.89670416 236.16206152 604.90223793 241.48405213 604.90696716 246.80604553 C604.91524373 257.21521195 604.91802065 267.62437271 604.91857954 278.03354215 C604.91905617 286.50307069 604.92111821 294.97259737 604.92428017 303.44212532 C604.9330789 327.50315548 604.93770082 351.56418118 604.93694969 375.62521296 C604.93688976 377.56748555 604.93688976 377.56748555 604.93682861 379.54899597 C604.93676729 381.4936654 604.93676729 381.4936654 604.93670473 383.47762109 C604.93629858 404.47196105 604.94586244 425.46628306 604.95996698 446.46061783 C604.97436567 468.06485992 604.98123523 489.66909328 604.9803732 511.27334028 C604.98004242 523.38334479 604.98273725 535.49333046 604.99355125 547.60333061 C605.00270239 557.91654197 605.00479394 568.22972597 604.99804183 578.54293966 C604.99479963 583.79376388 604.99463558 589.04453575 605.00339508 594.29535484 C605.13334687 677.45375709 605.13334687 677.45375709 590.75152588 709.13371277 C590.24116675 710.69285991 589.74070971 712.25529278 589.25152588 713.82121277 C575.10077318 753.03284049 541.41834805 786.02763965 504.43902588 803.75871277 C487.17708693 811.83107671 469.83967176 817.30612357 451.00152588 820.32121277 C449.46842773 820.57185486 449.46842773 820.57185486 447.90435791 820.82756042 C441.59110918 821.78167163 435.31735897 822.33534245 428.94644642 822.6511879 C427.70270858 822.71436283 427.70270858 822.71436283 426.43384473 822.77881403 C417.83132532 823.20148859 409.22715433 823.47340157 400.61717224 823.68614197 C399.79050091 823.70707518 398.96382958 823.72800839 398.1121076 823.74957594 C379.30232571 824.21724332 360.49657923 824.29055947 341.68186748 824.29375553 C336.83723414 824.29565467 331.99260842 824.30322309 327.14797974 824.30989075 C316.6337457 824.32327201 306.11951556 824.32946408 295.60527444 824.33390141 C289.01143266 824.33669369 282.41759228 824.34093542 275.82375145 824.34540558 C257.47570673 824.35756247 239.1276631 824.3678747 220.77961445 824.37128067 C219.03058237 824.37161002 219.03058237 824.37161002 217.24621631 824.37194602 C216.07788471 824.3721643 214.90955311 824.37238258 213.70581752 824.37260747 C211.33946184 824.37305089 208.97310617 824.37349746 206.60675049 824.37394714 C204.84617046 824.37427929 204.84617046 824.37427929 203.05002316 824.37461814 C184.01671855 824.37856946 164.98345213 824.39604983 145.95016227 824.41930667 C126.29105654 824.44313007 106.63196992 824.45548717 86.97284955 824.45664859 C75.98178488 824.4575582 64.9907703 824.4631296 53.99971962 824.4814682 C44.64983966 824.49701754 35.30002537 824.50190294 25.95013491 824.4937301 C21.20015444 824.48987782 16.45030562 824.49048053 11.70034218 824.50478745 C-22.56330547 824.60199553 -58.31550734 824.62531666 -91.24847412 814.13371277 C-92.68336184 813.69748815 -94.11825811 813.26129168 -95.55316162 812.82511902 C-106.02861961 809.5653605 -115.61523528 805.36054907 -125.24847412 800.13371277 C-125.85675049 799.81144714 -126.46502686 799.48918152 -127.09173584 799.15715027 C-140.21452435 792.18666504 -151.48270141 783.3465606 -162.24847412 773.13371277 C-162.74315186 772.67158386 -163.23782959 772.20945496 -163.74749756 771.73332214 C-176.76914756 759.50499113 -186.9743615 745.83290242 -195.25775146 730.01701355 C-196.1867637 728.25102036 -197.14817555 726.50217872 -198.11175537 724.75480652 C-213.60575819 695.65631343 -217.79462982 661.2384886 -218.81851196 628.74554443 C-218.85951141 627.46522703 -218.90051086 626.18490962 -218.94275272 624.86579472 C-219.43641456 608.33419471 -219.39091052 591.79699236 -219.37919879 575.2596606 C-219.3768971 570.43136582 -219.38044754 565.60307435 -219.38317871 560.77478027 C-219.38758518 551.36034228 -219.38668303 541.94591233 -219.38376607 532.53147405 C-219.38149181 524.86891867 -219.3812082 517.20636551 -219.38228989 509.54380989 C-219.38244312 508.44610306 -219.38259635 507.34839622 -219.38275423 506.21742554 C-219.38307401 503.98627777 -219.38339822 501.75513 -219.38372682 499.52398223 C-219.38656657 478.68751391 -219.38331825 457.85105 -219.37792645 437.0145824 C-219.37345916 419.20036779 -219.37423667 401.38615969 -219.37884521 383.57194519 C-219.38421661 362.79974608 -219.38629267 342.02755083 -219.38323295 321.25535113 C-219.38291446 319.03350071 -219.38260009 316.8116503 -219.38228989 314.58979988 C-219.38213561 313.49708606 -219.38198134 312.40437223 -219.38182238 311.27854587 C-219.38096495 303.63946152 -219.38240329 296.00037966 -219.38476944 288.3612957 C-219.38759623 279.03150746 -219.38676916 269.70172761 -219.3814887 260.37194031 C-219.37889019 255.62698511 -219.37777985 250.88204382 -219.38113785 246.13708878 C-219.41738405 190.22430155 -219.41738405 190.22430155 -216.99847412 168.25871277 C-216.86989014 167.07148621 -216.74130615 165.88425964 -216.60882568 164.66105652 C-213.73423916 139.88517453 -207.28251976 116.04705939 -195.24847412 94.13371277 C-194.92234131 93.5244696 -194.5962085 92.91522644 -194.26019287 92.28752136 C-186.99556688 78.73146878 -177.84781282 67.1948261 -167.24847412 56.13371277 C-166.7700708 55.628078 -166.29166748 55.12244324 -165.79876709 54.60148621 C-122.16451576 8.64766084 -60.3993058 -0.06320804 0 0 Z M-16.53523254 24.60346985 C-17.21889562 24.62454024 -17.90255869 24.64561063 -18.60693883 24.66731952 C-28.66237235 24.98545283 -38.67173755 25.47017658 -48.68597412 26.44621277 C-49.36218811 26.51062561 -50.0384021 26.57503845 -50.73510742 26.6414032 C-86.55235114 30.09484784 -118.71021296 43.70001783 -145.24847412 68.13371277 C-145.75008057 68.59535828 -146.25168701 69.05700378 -146.76849365 69.53263855 C-180.7032464 101.18606338 -192.69064791 145.32607394 -194.48591232 190.32751656 C-194.66941884 196.01127026 -194.76574753 201.69608968 -194.85345459 207.38200378 C-194.87238762 208.47859601 -194.89132064 209.57518824 -194.9108274 210.70501053 C-195.51353449 246.21308041 -195.39530148 281.73124821 -195.3837753 317.24312153 C-195.38146335 324.54323164 -195.3812147 331.84333941 -195.38228989 339.14344978 C-195.38244312 340.19565563 -195.38259635 341.24786148 -195.38275423 342.33195235 C-195.38307404 344.47131296 -195.38339826 346.61067356 -195.38372682 348.75003416 C-195.38655122 368.61925307 -195.38334069 388.48846731 -195.37792645 408.35768545 C-195.37344071 425.34609987 -195.37425476 442.33450746 -195.37884521 459.32292175 C-195.38420999 479.18549526 -195.38629803 499.04806474 -195.38323295 518.91063887 C-195.38291447 521.03118074 -195.3826001 523.15172261 -195.38228989 525.27226448 C-195.38213561 526.31495281 -195.38198134 527.35764114 -195.38182238 528.43192608 C-195.38096446 535.7254104 -195.38240395 543.01889211 -195.38476944 550.31237602 C-195.38758798 559.19494787 -195.38678526 568.0775109 -195.3814887 576.96008175 C-195.3788824 581.47749993 -195.37779404 585.99490344 -195.38113785 590.51232147 C-195.47954679 633.07737893 -195.47954679 633.07737893 -190.31097412 675.25871277 C-190.15330566 676.09926208 -189.99563721 676.9398114 -189.83319092 677.80583191 C-185.5314981 699.53854464 -175.36985215 722.02313793 -161.24847412 739.13371277 C-160.81986084 739.66480652 -160.39124756 740.19590027 -159.949646 740.74308777 C-143.18009466 761.45429999 -121.08592759 780.08690332 -95.24847412 788.19621277 C-91.87048015 789.27717084 -88.54125757 790.37909939 -85.24847412 791.69621277 C-76.19653636 795.07243955 -66.98397002 796.55108463 -57.43597412 797.75871277 C-56.46466553 797.88181824 -55.49335693 798.00492371 -54.49261475 798.13175964 C-40.19278167 799.84471119 -26.01815357 800.28145536 -11.63630676 800.26742554 C-9.79667932 800.26929769 -7.95705228 800.27159999 -6.11742586 800.27429086 C-1.10114277 800.28036548 3.91512355 800.28028042 8.93140948 800.27909648 C14.35701603 800.27889137 19.78261736 800.2844218 25.20822144 800.28915405 C35.82420403 800.29743763 46.44018108 800.30020787 57.05616664 800.30076643 C65.69261757 800.30124274 74.32906669 800.30330321 82.96551704 800.30646706 C107.49119503 800.31526785 132.01686865 800.3198874 156.54254823 800.31913658 C157.53248853 800.31910666 157.53248853 800.31910666 158.54242762 800.31907614 C159.8770272 800.3190357 161.21162678 800.31899391 162.54622636 800.31895075 C184.62379531 800.31829924 206.70134498 800.32760921 228.77890878 800.34215387 C250.80118246 800.35654674 272.82344757 800.36342243 294.84572607 800.36256009 C307.1937936 800.3622291 319.54184266 800.36493317 331.88990593 800.37573814 C342.40597462 800.38488159 352.92201649 800.38698706 363.43808746 800.38022872 C368.79396346 800.37698265 374.14978811 800.37683686 379.5056591 800.38558197 C410.18303015 800.48464478 410.18303015 800.48464478 440.75152588 798.13371277 C442.67272452 797.91055783 442.67272452 797.91055783 444.63273525 797.68289471 C464.80414953 795.18007658 482.97840706 788.86765776 500.75152588 779.13371277 C501.85367432 778.53429871 502.95582275 777.93488464 504.09136963 777.31730652 C514.42278049 771.49367391 523.1196598 764.22134096 531.75152588 756.13371277 C532.7131665 755.23781433 533.67480713 754.34191589 534.66558838 753.41886902 C563.83698133 725.63050038 577.93921588 686.5267696 579.54058838 646.86808777 C579.75152588 643.13371277 579.75152588 643.13371277 580.25649524 639.8773405 C580.76429801 636.03712461 580.87928116 632.37396014 580.88295364 628.50129414 C580.88500628 627.76111828 580.88705891 627.02094242 580.88917375 626.25833699 C580.89482056 623.78223378 580.89338934 621.30618661 580.89196777 618.83007812 C580.89455283 617.03478087 580.89756638 615.23948419 580.90097117 613.4441883 C580.90902962 608.51281049 580.91083013 603.58144725 580.91156864 598.65006363 C580.91342151 593.32906272 580.92097064 588.00806932 580.92770386 582.68707275 C580.94128548 571.04494653 580.94731331 559.40282375 580.95171452 547.76069093 C580.95448055 540.47755184 580.95871888 533.19441406 580.96321869 525.91127586 C580.97541742 505.71331904 580.98571145 485.51536327 580.98909378 465.31740284 C580.98942313 463.37798254 580.98942313 463.37798254 580.98975913 461.39938204 C580.98997741 460.10343816 580.99019569 458.80749428 580.99042058 457.47227937 C580.99086403 454.84648438 580.9913106 452.2206894 580.99176025 449.59489441 C580.9920924 447.64119119 580.9920924 447.64119119 580.99243125 445.64801922 C580.99636703 424.61129181 581.01378087 403.57459931 581.03711978 382.53788535 C581.06093464 360.89549103 581.07330043 339.25311412 581.0744617 317.61070651 C581.07537347 305.47786638 581.08099771 293.34507156 581.09928131 281.21224403 C581.11482052 270.86430003 581.119723 260.51641531 581.11154321 250.16846184 C581.10768321 244.90429098 581.10833253 239.64023896 581.12260056 234.37608337 C581.6260908 168.53520086 581.6260908 168.53520086 560.75445557 106.97160339 C559.76411881 105.15678959 558.80760173 103.32694037 557.85308838 101.49308777 C553.49355823 93.30554103 548.2552856 86.47096244 542.06695557 79.60490417 C540.86804111 78.26402472 539.7023584 76.89361906 538.54058838 75.52043152 C521.48346296 55.64158832 498.81458576 42.77747649 474.25152588 34.38371277 C473.02502319 33.96073914 473.02502319 33.96073914 471.77374268 33.52922058 C459.42589072 29.47741147 446.71694883 27.6738818 433.81402588 26.50871277 C432.62357666 26.38754089 431.43312744 26.26636902 430.206604 26.14152527 C403.31312268 23.636006 376.12637075 23.98290204 349.14120948 24.0029881 C344.53100758 24.00529603 339.92080908 24.00173638 335.31060791 23.99900818 C326.32690721 23.99460786 317.34321495 23.99550109 308.35951395 23.99842082 C301.04458084 24.00069785 293.72965008 24.00097752 286.41471672 23.999897 C285.3656169 23.99974377 284.31651708 23.99959054 283.23562635 23.99943266 C281.10305357 23.99911287 278.9704808 23.99878866 276.83790802 23.99846007 C256.93363539 23.99562205 237.0293674 23.99886574 217.12509554 24.00426044 C200.12288445 24.00872628 183.1206802 24.00795107 166.11846924 24.00334167 C146.27718412 23.99796495 126.43590305 23.99589727 106.59461731 23.99895394 C104.47046181 23.99927242 102.3463063 23.99958679 100.2221508 23.999897 C98.65529411 24.00012842 98.65529411 24.00012842 97.05678375 24.0003645 C89.76871077 24.00122045 82.4806404 23.99978686 75.19256783 23.99741745 C66.28491496 23.99458459 57.37727087 23.99542998 48.46961898 24.00069819 C43.94288285 24.003289 39.41616124 24.00442097 34.88942528 24.00104904 C17.74028838 23.98935477 0.60685776 24.07436651 -16.53523254 24.60346985 Z " fill="#A2ADB0" transform="translate(319.24847412109375,99.86628723144531)"/>
<path d="M0 0 C9.50294546 4.57644012 18.680517 9.5922129 27.84204102 14.81713867 C34.84658327 18.80414832 41.9015653 22.68292811 49 26.5 C59.8758794 32.35488087 70.63588083 38.39998042 81.37158203 44.50732422 C85.38687612 46.78760548 89.41163726 49.05094606 93.4375 51.3125 C95.603125 52.529375 97.76875 53.74625 100 55 C100 62.59 100 70.18 100 78 C88.3942055 84.61486981 76.76398299 91.16986599 65 97.5 C57.15449055 101.72167358 49.36632669 106.02773123 41.625 110.4375 C27.92331944 118.23816884 14.10392135 125.94803933 0 133 C0 123.43 0 113.86 0 104 C14.08512096 96.5170593 28.27462424 89.26953663 42.5402832 82.13720703 C45.52199108 80.64542305 48.501615 79.14962781 51.48029423 77.65181541 C54.35096495 76.2096262 57.22447747 74.77312192 60.09765625 73.3359375 C61.16516617 72.79858978 62.23267609 72.26124207 63.33253479 71.70761108 C64.31213669 71.21934845 65.29173859 70.73108582 66.30102539 70.22802734 C67.16305069 69.79630219 68.02507599 69.36457703 68.91322327 68.91976929 C71 68 71 68 73 68 C73 67.01 73 66.02 73 65 C72.14867996 64.73683487 71.29735992 64.47366974 70.42024231 64.20252991 C66.87337891 62.95548104 63.63756659 61.44231485 60.27612305 59.75952148 C59.63311752 59.4389679 58.990112 59.11841431 58.32762146 58.78814697 C56.22035056 57.73635162 54.11599853 56.6788589 52.01171875 55.62109375 C50.54309958 54.88618768 49.07433204 54.15157804 47.60542297 53.41725159 C44.53705238 51.88228637 41.47003961 50.34465249 38.40405273 48.80493164 C34.4671883 46.82797188 30.52768476 44.85634156 26.58725262 42.88650417 C23.55910675 41.37229561 20.53200579 39.85600851 17.50525856 38.33900642 C16.05217393 37.61086996 14.59884436 36.8832221 13.14526939 36.15606499 C11.12146389 35.14308318 9.09899511 34.12748334 7.0769043 33.11108398 C5.92473923 32.53309555 4.77257416 31.95510712 3.585495 31.35960388 C1 30 1 30 0 29 C-0.08775605 26.85441173 -0.10695219 24.70595579 -0.09765625 22.55859375 C-0.09443359 21.25341797 -0.09121094 19.94824219 -0.08789062 18.60351562 C-0.07953401 17.2148431 -0.07106905 15.82617123 -0.0625 14.4375 C-0.05748666 13.04492344 -0.05292347 11.65234519 -0.04882812 10.25976562 C-0.03699434 6.8398013 -0.0205088 3.41992156 0 0 Z " fill="#FCFCFC" transform="translate(252,245)"/>
<path d="M0 0 C37.95 0 75.9 0 115 0 C115 7.59 115 15.18 115 23 C77.05 23 39.1 23 0 23 C0 15.41 0 7.82 0 0 Z " fill="#FFFFFF" transform="translate(386,396)"/>
</svg>
